<svg xmlns="http://www.w3.org/2000/svg" viewBox="0 0 1440 320"><path fill="#c88eff" fill-opacity="0.8" d="M0,128L21.8,117.3C43.6,107,87,85,131,85.3C174.5,85,218,107,262,122.7C305.5,139,349,149,393,138.7C436.4,128,480,96,524,96C567.3,96,611,128,655,165.3C698.2,203,742,245,785,250.7C829.1,256,873,224,916,213.3C960,203,1004,213,1047,208C1090.9,203,1135,181,1178,197.3C1221.8,213,1265,267,1309,288C1352.7,309,1396,299,1418,293.3L1440,288L1440,320L1418.2,320C1396.4,320,1353,320,1309,320C1265.5,320,1222,320,1178,320C1134.5,320,1091,320,1047,320C1003.6,320,960,320,916,320C872.7,320,829,320,785,320C741.8,320,698,320,655,320C610.9,320,567,320,524,320C480,320,436,320,393,320C349.1,320,305,320,262,320C218.2,320,175,320,131,320C87.3,320,44,320,22,320L0,320Z"></path></svg>