<svg xmlns="http://www.w3.org/2000/svg" viewBox="0 0 1440 320"><path fill="#c88eff" fill-opacity="0.8" d="M0,128L26.7,122.7C53.3,117,107,107,160,117.3C213.3,128,267,160,320,170.7C373.3,181,427,171,480,138.7C533.3,107,587,53,640,69.3C693.3,85,747,171,800,192C853.3,213,907,171,960,181.3C1013.3,192,1067,256,1120,245.3C1173.3,235,1227,149,1280,122.7C1333.3,96,1387,128,1413,144L1440,160L1440,0L1413.3,0C1386.7,0,1333,0,1280,0C1226.7,0,1173,0,1120,0C1066.7,0,1013,0,960,0C906.7,0,853,0,800,0C746.7,0,693,0,640,0C586.7,0,533,0,480,0C426.7,0,373,0,320,0C266.7,0,213,0,160,0C106.7,0,53,0,27,0L0,0Z"></path></svg>